<?xml version="1.0" standalone="no"?>
<!DOCTYPE svg PUBLIC "-//W3C//DTD SVG 20010904//EN"
 "http://www.w3.org/TR/2001/REC-SVG-20010904/DTD/svg10.dtd">
<svg version="1.0" xmlns="http://www.w3.org/2000/svg"
 width="64.000000pt" height="64.000000pt" viewBox="0 0 512.000000 512.000000"
 preserveAspectRatio="xMidYMid meet">

<g transform="translate(0.000000,512.000000) scale(0.100000,-0.100000)"
fill="#8b0000" stroke="none">
<path d="M2240 5105 c-642 -84 -1125 -374 -1423 -855 -129 -210 -224 -494
-261 -788 -21 -159 -21 -466 -1 -637 98 -836 555 -1806 1115 -2365 214 -215
433 -359 647 -427 80 -26 101 -28 238 -28 173 0 224 12 385 91 176 85 321 196
511 390 504 518 934 1362 1079 2119 52 272 65 613 34 857 -118 930 -729 1522
-1694 1643 -140 18 -494 18 -630 0z m-774 -2666 c405 -56 734 -357 829 -759
22 -96 30 -262 16 -347 l-13 -72 -46 -8 c-70 -12 -279 -8 -342 6 -99 23 -184
53 -260 92 -245 127 -435 362 -505 625 -29 108 -40 270 -26 367 l13 86 46 6
c26 4 52 8 57 10 23 8 159 4 231 -6z m2496 -5 c25 -6 27 -11 39 -92 14 -95 3
-259 -26 -366 -70 -263 -260 -498 -505 -625 -76 -39 -161 -69 -260 -92 -63
-14 -272 -18 -342 -6 l-46 8 -13 72 c-14 85 -6 251 16 347 94 397 419 698 820
760 61 9 267 5 317 -6z"/>
</g>
</svg>
